<svg xmlns="http://www.w3.org/2000/svg" width="140" height="35" style="background:#000" viewBox="0 0 140 35">
    <g fill="none" fill-rule="evenodd">
        <path fill="#C9E8E3" d="M13.412 14.205H.992a16.553 16.553 0 0 1 5.05-9.216h.99a6.35 6.35 0 0 1 4.512 1.873 6.344 6.344 0 0 1 1.87 4.51l-.002 2.833zM13.412 21.105H1.198a16.735 16.735 0 0 1-.383-5.634l12.597.002v5.632z"/>
        <path fill="#CADDE5" d="M13.412 23.641v9.691A16.58 16.58 0 0 1 5.6 28.935a16.552 16.552 0 0 1-3.566-5.296l11.378.002z"/>
        <path fill="#C9E8E3" d="M23.607 21.152l.003-19.398a16.559 16.559 0 0 1 6.089 4.265v15.13l-6.092.003z"/>
        <path fill="#D6D6D6" d="M21.074.956v32.435c-1.685.38-3.417.5-5.128.351v-22.37a8.845 8.845 0 0 0-2.61-6.303 8.86 8.86 0 0 0-4.19-2.36A16.658 16.658 0 0 1 21.075.955M30.967 21.15V7.6c2.82 4 3.671 8.964 2.549 13.55h-2.55zM29.123 28.935a16.559 16.559 0 0 1-5.513 3.658v-8.907h9.059a16.558 16.558 0 0 1-3.546 5.249"/>
        <path fill="#FFF" d="M15.946 33.193V11.371a8.844 8.844 0 0 0-2.61-6.302 8.882 8.882 0 0 0-3.293-2.087 16.078 16.078 0 0 1 11.03-1.257v31.067c-1.679.41-3.412.541-5.127.401M2.59 23.639l10.82.002.001 9.143a15.9 15.9 0 0 1-7.467-4.212 15.904 15.904 0 0 1-3.354-4.933m-1.22-8.168l12.04.002v5.632H1.734a16.112 16.112 0 0 1-.363-5.634M6.996 4.989h.036a6.348 6.348 0 0 1 4.512 1.873 6.344 6.344 0 0 1 1.87 4.51l-.002 2.833H1.558A15.905 15.905 0 0 1 6.996 4.99m22.702 2.21v13.95l-6.09.003.002-18.573a15.909 15.909 0 0 1 6.088 4.62m3.074 13.95h-1.805V9.01a16.056 16.056 0 0 1 1.805 12.14m-4.2 7.422a15.916 15.916 0 0 1-4.962 3.367v-8.253h8.295a15.915 15.915 0 0 1-3.333 4.886m.896-23.523c-6.732-6.732-17.687-6.732-24.419 0-6.732 6.733-6.732 17.687 0 24.419 6.732 6.732 17.687 6.732 24.419 0 6.732-6.732 6.732-17.686 0-24.419"/>
        <path fill="#4A90E2" d="M24.287 18.486a8.206 8.206 0 0 0-1.198-4.282l2.503-2.504.572.573a1.19 1.19 0 0 0 1.681-1.681l-3.91-3.912a1.19 1.19 0 0 0-1.682 1.682l.572.573-2.502 2.502a8.246 8.246 0 1 0 3.964 7.049"/>
        <path fill="#FFF" d="M28.796 9.64l-3.91-3.91a2.537 2.537 0 0 0-3.584 0 2.539 2.539 0 0 0-.338 3.164l-.889.89a9.585 9.585 0 0 0-4.035-.89c-2.561 0-4.97.998-6.782 2.81a9.528 9.528 0 0 0-2.809 6.782c0 2.562.998 4.97 2.81 6.782a9.528 9.528 0 0 0 6.781 2.809c2.562 0 4.97-.998 6.782-2.81a9.53 9.53 0 0 0 2.81-6.781c0-1.4-.305-2.777-.889-4.035l.889-.889c.98.633 2.306.52 3.164-.338a2.537 2.537 0 0 0 0-3.583m-.95.95a1.19 1.19 0 0 1-1.682 1.682l-.572-.573-2.503 2.504a8.246 8.246 0 1 1-2.766-2.766l2.502-2.503-.572-.573a1.189 1.189 0 1 1 1.681-1.682l3.912 3.912"/>
        <path fill="#60AEEF" d="M24.286 18.486a8.224 8.224 0 0 1-2.417 5.833 8.207 8.207 0 0 1-5.714 2.41c-.038.003-.077.003-.115.003-.325 0-.646-.02-.971-.061a8.175 8.175 0 0 1-4.862-2.352 8.188 8.188 0 0 1-2.356-4.88 7.937 7.937 0 0 1-.057-.953c0-.08 0-.157.004-.237 5.825-3.507 9.66 4.272 16.461-.402.015.169.023.34.023.513.004.042.004.084.004.126"/>
        <path fill="#FFF" d="M13.861 21.635a.894.894 0 1 1-.52-1.71.894.894 0 0 1 .52 1.71M12.031 18.802a1.412 1.412 0 1 1-.82-2.702 1.412 1.412 0 0 1 .82 2.702"/>
        <g fill="#FFF">
            <path d="M45 11v12h7v-2.074h-4.85V11zM60.163 19.834v-.816h-2.292c-1.172 0-1.716.323-1.716 1.121 0 .763.612 1.258 1.614 1.258 1.273 0 2.275-.681 2.394-1.563zm.017 3.157v-1.103c-.629.798-1.646 1.206-2.937 1.206-1.953 0-3.176-1.206-3.176-2.819 0-1.681 1.24-2.716 3.447-2.733h2.649v-.238c0-1.053-.696-1.682-2.054-1.682-.85 0-1.767.289-2.7.85l-.798-1.528c1.306-.73 2.326-1.121 3.99-1.121 2.377 0 3.718 1.204 3.735 3.226l.017 5.942H60.18zM72.429 18.423c0-1.595-1.054-2.733-2.547-2.733-1.512 0-2.564 1.138-2.564 2.733 0 1.63 1.052 2.751 2.564 2.751 1.493 0 2.547-1.137 2.547-2.75m2.24.067c0 2.734-1.68 4.584-4.26 4.584-1.377 0-2.43-.559-3.091-1.56v1.477h-2.207v-12.6h2.207v5.009c.645-1 1.697-1.561 3.056-1.561 2.564 0 4.295 1.867 4.295 4.651M79.704 15.538c-.714 0-1.223.237-1.223.797 0 1.53 4.805.73 4.805 3.991 0 1.85-1.647 2.75-3.582 2.75-1.376 0-2.802-.441-3.753-1.273l.764-1.545c.833.714 2.089 1.12 3.074 1.12.764 0 1.34-.255 1.34-.85 0-1.68-4.736-.763-4.72-3.989 0-1.867 1.596-2.734 3.43-2.734 1.189 0 2.429.357 3.328.969l-.797 1.595c-.884-.525-1.886-.83-2.666-.83M89.439 15.775c-1.461 0-2.48 1.087-2.48 2.684 0 1.63 1.019 2.715 2.48 2.715 1.053 0 1.9-.355 2.444-1.069l1.375 1.137c-.797 1.155-2.156 1.833-3.938 1.833-2.717 0-4.584-1.867-4.584-4.6 0-2.768 1.884-4.636 4.618-4.636 1.663 0 2.988.612 3.802 1.665l-1.34 1.273c-.578-.627-1.375-1.002-2.377-1.002M100.847 19.834v-.816h-2.292c-1.172 0-1.716.323-1.716 1.121 0 .763.612 1.258 1.614 1.258 1.273 0 2.275-.681 2.394-1.563zm.017 3.157v-1.103c-.629.798-1.647 1.206-2.938 1.206-1.952 0-3.175-1.206-3.175-2.819 0-1.681 1.24-2.716 3.447-2.733h2.649v-.238c0-1.053-.697-1.682-2.054-1.682-.85 0-1.767.289-2.7.85l-.798-1.528c1.306-.73 2.326-1.121 3.989-1.121 2.378 0 3.719 1.204 3.736 3.226l.017 5.942h-2.173zM113.113 18.423c0-1.595-1.053-2.733-2.547-2.733-1.512 0-2.564 1.138-2.564 2.733 0 1.63 1.052 2.751 2.564 2.751 1.494 0 2.547-1.137 2.547-2.75m2.241.067c0 2.734-1.68 4.584-4.261 4.584-1.376 0-2.43-.559-3.09-1.56v4.771h-2.208V13.91h2.207V15.4c.646-1 1.698-1.561 3.057-1.561 2.564 0 4.295 1.867 4.295 4.651M123.877 17.745c-.051-1.341-.951-2.19-2.326-2.19-1.308 0-2.224.849-2.428 2.19h4.754zm2.003 1.478h-6.706c.288 1.29 1.273 2.07 2.598 2.07.933 0 1.8-.356 2.445-1.019l1.188 1.24c-.9.984-2.224 1.562-3.82 1.562-2.819 0-4.669-1.869-4.669-4.6 0-2.768 1.901-4.637 4.618-4.637 3.192 0 4.567 2.09 4.346 5.384zM131.107 17.484c.241.345.66.67 1.226.67.753 0 1.205-.567 1.205-1.246 0-.861-.597-1.31-1.362-1.352h-.252v-.817c.064 0 .115-.01.179-.021.638-.074.974-.598.974-1.184 0-.64-.356-1.069-.89-1.069-.682 0-1.08.575-1.08 1.917v3.102zm0 1.098v.65c0 .609.022 1.426.125 1.855h-1.193c-.136-.315-.179-1.07-.179-1.791v-4.704c0-1.488.378-2.138.807-2.546.378-.347.88-.587 1.614-.587 1.193 0 1.97.807 1.97 1.866 0 .69-.368 1.34-.881 1.602v.051c.765.17 1.466.87 1.466 1.96 0 1.363-1.015 2.19-2.2 2.19-.628 0-1.12-.177-1.507-.546h-.022z"/>
        </g>
    </g>
</svg>
