<svg width="48" height="48" xmlns="http://www.w3.org/2000/svg">

 <g>
  <title>background</title>
  <rect fill="none" id="canvas_background" height="402" width="582" y="-1" x="-1"/>
 </g>
 <g>
  <title>Layer 1</title>
  <path id="svg_1" fill="none" d="m0,0l48,0l0,48l-48,0l0,-48z"/>
  <path stroke="null" id="svg_2" d="m5.333332,31.999998l-5.333333,0l0,10.666666c0,2.946667 2.386667,5.333333 5.333333,5.333333l10.666666,0l0,-5.333333l-10.666666,0l0,-10.666666zm0,-26.666665l10.666666,0l0,-5.333333l-10.666666,0c-2.946667,0 -5.333333,2.386667 -5.333333,5.333333l0,10.666666l5.333333,0l0,-10.666666zm37.333332,-5.333333l-10.666666,0l0,5.333333l10.666666,0l0,10.666666l5.333333,0l0,-10.666666c0,-2.946667 -2.386667,-5.333333 -5.333333,-5.333333zm0,42.666665l-10.666666,0l0,5.333333l10.666666,0c2.946667,0 5.333333,-2.386667 5.333333,-5.333333l0,-10.666666l-5.333333,0l0,10.666666zm-18.666666,-26.666665c-4.413333,0 -8,3.586667 -8,8s3.586667,8 8,8s8,-3.586667 8,-8s-3.586667,-8 -8,-8z"/>
  <line stroke="null" stroke-linecap="null" stroke-linejoin="null" id="svg_3" y2="41.8125" x2="41.937503" y1="6.0625" x1="3.6875" fill-opacity="null" stroke-opacity="null" stroke-width="null" fill="none"/>
 </g>
</svg>